<svg xmlns="http://www.w3.org/2000/svg" width="200" height="150" viewBox="0 0 200 150"><path fill="#B31352" d="M160.317 95.918c10.872 0 19.683 8.811 19.683 19.687 0 10.869-8.811 19.687-19.683 19.687-10.881 0-19.688-8.817-19.688-19.687 0-10.876 8.808-19.687 19.688-19.687z"/><path fill="#44B078" d="M58.496 45.111c6.95 0 11.168 2.492 14.347 7.999l46.429 80.419 49.271-86.349h-19.842l-29.428 51.978-29.765-51.554c-7.833-16.336-18.586-20.101-30.865-20.101-20.261 0-35.056 12.576-35.056 29.586 0 32.687 47.889 31.207 47.889 49.109 0 8.137-7.1 12.421-15.084 12.421-14.649 0-25.447-12.421-25.447-12.421l-10.945 13.605s12.869 16.276 36.09 16.276c22.041 0 34.91-14.209 34.91-30.914 0-34.469-47.887-30.918-47.887-48.818.001-6.658 6.511-11.236 15.383-11.236z"/><path fill="#39485D" d="M130.393 47.18l-11.118 20.267-18.837-33.426h-.016c-9.16-15.726-18.588-20.1-30.866-20.1-16.193 0-28.885 8.037-33.333 19.946 5.955-4.022 13.669-6.364 22.404-6.364 9.838 0 18.697 2.424 25.859 11.788l34.79 59.866 29.428-51.978-18.311.001zm-74.019 71.439c7.984 0 15.084-4.284 15.084-12.422 0-.532-.047-1.046-.131-1.545-1.294.253-2.646.384-4.025.384-14.648 0-25.447-12.422-25.447-12.422l-10.926 13.585c.048.056 10.829 12.42 25.445 12.42z"/></svg>